<svg xmlns="http://www.w3.org/2000/svg" viewBox="0 0 800 1000" width="800" height="1000">
  <path fill="#f3f0e8" d="
    M 160 130
    C 200 90 260 70 320 62
    C 380 54 420 40 460 44
    C 500 48 495 70 530 74
    C 570 78 600 66 630 84
    C 655 100 645 130 660 150
    C 680 176 700 190 698 220
    C 696 246 686 264 692 288
    C 700 316 730 320 758 316
    C 744 342 716 356 694 376
    C 674 394 664 416 654 442
    C 640 478 630 512 610 542
    C 592 570 570 590 562 622
    C 552 660 560 700 552 738
    C 544 776 550 812 536 848
    C 522 884 498 912 476 940
    C 458 962 434 972 410 964
    C 386 956 372 934 368 908
    C 364 880 372 852 366 824
    C 358 788 340 758 342 720
    C 344 686 362 658 360 624
    C 358 594 340 572 332 544
    C 324 518 332 492 320 468
    C 308 444 282 436 252 440
    C 218 444 192 458 158 452
    C 122 446 94 422 78 388
    C 62 354 66 316 78 282
    C 90 248 112 226 120 194
    C 128 164 136 148 160 130
    Z"/>
  <!-- Madagascar -->
  <path fill="#f3f0e8" d="
    M 690 640
    C 706 626 720 636 722 660
    C 724 688 714 716 704 742
    C 694 768 680 782 666 772
    C 654 764 658 738 664 714
    C 670 688 676 656 690 640
    Z"/>
</svg>
